# xmcd
#
# Track frame offsets:
#	150
#	11587
#	20827
#	32657
#	45662
#	58677
#	71665
#	84927
#	94247
#	108110
#	121090
#	132245
#	146647
#	158005
#	172265
#	185312
#	197005
#	210565
#	223632
#	235202
#	245932
#	255520
#	266812
#	279347
#	292990
#
# Disc length: 4094 seconds
# Revision: 0
# Processed by: cddbd v1.5.2PL0 Copyright (c) Steve Scherf et al.
# Submitted via: dBpowerAMP V12.0
#
DISCID=6e0ffc19
DTITLE=Various Artist - Greatest Hits of the Millennium 60's Vol 1 CD 2
DYEAR=1999
DGENRE=Pop
TTITLE0=Pat Boone - Speedy Gonzales
TTITLE1=Tommy Roe - Sheila
TTITLE2=Bobby Vinton - Roses Are Red
TTITLE3=Dave Brubeck - Take Five
TTITLE4=De Spelbrekers - Katinka
TTITLE5=Marty Robbins - Devil Woman
TTITLE6=Mr. Acker Bilk - Stranger on the Shore
TTITLE7=The Beach Boys - Surfin' Safari
TTITLE8=Rocco Granata - Buona Notte Bambino
TTITLE9=Gert Timmerman - Ik Heb Eerbied Voor Jou Grijze Haren
TTITLE10=Willeke Alberti - Spiegelbeeld
TTITLE11=Freddy Quinn - Junge, Komm Bald Wieder
TTITLE12=Rob de Nijs - Ritme Van de Regen
TTITLE13=Françoise Hardy - Tous Les Garçons et les Filles
TTITLE14=The Contours - Do You Love Me
TTITLE15=West Side Story Film Cast - Maria
TTITLE16=Roy Orbison - Oh, Pretty Woman
TTITLE17=Lucille Star - The French Song
TTITLE18=The Supremes - Where Did Our Love Go
TTITLE19=Louis Armstrong - Hello Dolly
TTITLE20=Dale and Grace - I'm Leaving It Up to You
TTITLE21=Julie Rodgers - The Wedding
TTITLE22=Migil Five - Mockingbird Hill
TTITLE23=Dusty Springfield - I Just Don't Know What to Do With Myself
TTITLE24=Los Indios Tabajaras - Maria Elena
EXTD=
EXTT0=
EXTT1=
EXTT2=
EXTT3=
EXTT4=
EXTT5=
EXTT6=
EXTT7=
EXTT8=
EXTT9=
EXTT10=
EXTT11=
EXTT12=
EXTT13=
EXTT14=
EXTT15=
EXTT16=
EXTT17=
EXTT18=
EXTT19=
EXTT20=
EXTT21=
EXTT22=
EXTT23=
EXTT24=
PLAYORDER=
